# xmcd
#
# Track frame offsets: 
#        150
#        45935
#        87065
#        131986
#        170556
#        210725
#        245834
#
# Disc length: 3758 seconds
#
# Revision: 1
# Processed by: cddbd v1.5.2PL0 Copyright (c) Steve Scherf et al.
# Submitted via: ExactAudioCopy v0.99pb4
#
DISCID=5e0eac07
DTITLE=Stephen Rhodes - Pure Tranquility
DYEAR=2001
DGENRE=New Age
TTITLE0=Pathway to Solitude
TTITLE1=Arise
TTITLE2=Ocean Fantasy
TTITLE3=The Eternal Essence
TTITLE4=Romance in C
TTITLE5=Time Stood Still
TTITLE6=Daybreak
EXTD=YEAR: 2001
EXTT0=
EXTT1=
EXTT2=
EXTT3=
EXTT4=
EXTT5=
EXTT6=
PLAYORDER=
